<?xml version="1.0" encoding="iso-8859-1"?>
<!-- Generator: Adobe Illustrator 19.0.0, SVG Export Plug-In . SVG Version: 6.00 Build 0)  -->
<svg version="1.1" id="Layer_1" xmlns="http://www.w3.org/2000/svg" xmlns:xlink="http://www.w3.org/1999/xlink" x="0px" y="0px"
	 viewBox="0 0 280.051 280.051" style="enable-background:new 0 0 280.051 280.051;" xml:space="preserve">
<g>
	<g>
		<g id="XMLID_29_">
			<g>
				<path style="fill:#EAEEEF;" d="M261.083,238.296l-22.768,22.768l-13.457-13.457l22.768-22.768L261.083,238.296z"/>
				<path style="fill:#EAEEEF;" d="M212.094,189.338l-22.768,22.768L175.54,198.32l22.768-22.768L212.094,189.338z"/>
				<path style="fill:#EAEEEF;" d="M104.501,81.748l-22.768,22.737L68.31,91.059l22.738-22.768L104.501,81.748z"/>
				<path style="fill:#EAEEEF;" d="M55.544,32.758L32.777,55.526L18.99,41.74l22.768-22.768L55.544,32.758z"/>
				<path style="fill:#EAEEEF;" d="M244.563,38.736c-0.811,0.781-2.103,0.781-2.883,0c-0.811-0.811-0.811-2.103,0-2.883
					c0.39-0.421,0.901-0.601,1.442-0.601c0.511,0,1.021,0.18,1.442,0.601C245.343,36.633,245.343,37.925,244.563,38.736z"/>
				<path style="fill:#C5CBCF;" d="M198.158,41.859l40.369,40.369c-5.316,5.016-12.255,7.779-19.584,7.779
					c-7.629,0-14.808-2.974-20.184-8.35c-0.03,0-0.03,0-0.03,0c-5.377-5.407-8.35-12.585-8.35-20.214
					C190.376,54.114,193.139,47.176,198.158,41.859z"/>
				<path style="fill:#EAEEEF;" d="M210.932,79.997c6.851,0,13.342-2.442,18.505-6.854l-31.28-31.283
					c-5.016,5.316-7.779,12.255-7.779,19.584c0,4.361,1,8.56,2.838,12.378C198.231,77.81,204.41,79.997,210.932,79.997z"/>
				<path style="fill:#505967;" d="M66.655,43.872l13.276,13.306L57.165,79.915L43.89,66.639L66.655,43.872z"/>
				<path style="fill:#505967;" d="M165.177,77.543l37.666,37.695l-6.491,6.488L158.656,84.06L165.177,77.543z"/>
				<path style="fill:#505967;" d="M116.549,201.533l-7.419,7.389l-37.669-37.666l7.392-7.389L116.549,201.533z"/>
				<path style="fill:#505967;" d="M236.514,213.727l-22.768,22.768l-13.276-13.276l22.768-22.768L236.514,213.727z"/>
				<path style="fill:#EAEEEF;" d="M185.21,132.84l-57.55,57.579l-37.666-37.695l57.553-57.55L185.21,132.84z"/>
				<path style="fill:#2D213F;" d="M277.754,232.74c3.064,3.064,3.064,8.05,0,11.113l-33.881,33.881
					c-1.532,1.562-3.544,2.313-5.557,2.313c-2.012,0-4.025-0.751-5.557-2.313l-73.889-73.859c-1.472-1.472-2.313-3.484-2.313-5.557
					c0-2.103,0.841-4.085,2.313-5.557l11.053-11.053l-5.647-5.647l-49.59,49.56c-1.532,1.532-3.544,2.283-5.557,2.283
					s-4.025-0.751-5.557-2.283l-48.809-48.809c-3.064-3.064-3.064-8.05,0-11.113l49.59-49.56l-6.007-6.007l-11.053,11.053
					c-1.532,1.532-3.544,2.313-5.557,2.313s-4.025-0.781-5.557-2.313L2.321,47.296c-3.094-3.064-3.094-8.05,0-11.113l33.88-33.881
					c3.064-3.064,8.05-3.064,11.113,0l73.889,73.859c3.064,3.094,3.064,8.05,0,11.143L109.46,99.019l6.007,5.977l44.153-44.123
					c3.064-3.064,8.05-3.064,11.113,0l4.085,4.085c-0.09-1.171-0.18-2.313-0.18-3.514c0-11.804,4.626-22.948,12.976-31.298
					l4.986-4.986c2.944-2.944,8.17-2.944,11.113,0l20.184,20.214l2.433-2.433c-2.073-6.218-0.721-13.306,4.205-18.232
					c6.938-6.908,18.202-6.908,25.14,0c3.454,3.484,5.196,8.02,5.196,12.555c0,4.566-1.742,9.131-5.196,12.585
					c-3.454,3.454-8.02,5.196-12.555,5.196c-1.922,0-3.815-0.39-5.647-0.991l-2.433,2.433l20.184,20.184
					c1.472,1.472,2.313,3.484,2.313,5.557c0,2.103-0.841,4.115-2.313,5.587l-4.986,4.956c-8.35,8.38-19.464,12.976-31.298,12.976
					c-1.171,0-2.343-0.09-3.514-0.18l4.085,4.085c3.094,3.094,3.094,8.05,0,11.143l-44.123,44.123l5.647,5.677l11.714-11.744
					c1.472-1.472,3.484-2.283,5.557-2.283c2.103,0,4.085,0.811,5.587,2.283L277.754,232.74z M238.313,261.065l22.768-22.768
					l-13.456-13.456l-22.768,22.768L238.313,261.065z M244.563,38.736c0.781-0.811,0.781-2.103,0-2.883
					c-0.421-0.421-0.931-0.601-1.442-0.601c-0.541,0-1.051,0.18-1.442,0.601c-0.811,0.781-0.811,2.073,0,2.883
					C242.462,39.517,243.748,39.517,244.563,38.736z M238.522,82.228l-40.369-40.369c-5.016,5.316-7.779,12.255-7.779,19.584
					c0,7.629,2.974,14.808,8.35,20.214c0,0,0,0,0.03,0c5.377,5.377,12.555,8.35,20.184,8.35
					C226.268,90.008,233.21,87.244,238.522,82.228z M213.742,236.495l22.768-22.768l-13.276-13.276l-22.768,22.768L213.742,236.495z
					 M189.326,212.105l22.768-22.768l-13.787-13.787l-22.768,22.768L189.326,212.105z M202.843,115.238l-37.666-37.696l-6.518,6.518
					l37.696,37.666L202.843,115.238z M127.66,190.419l57.55-57.58l-37.666-37.666l-57.55,57.55L127.66,190.419z M109.13,208.922
					l7.419-7.389l-37.696-37.666l-7.389,7.389L109.13,208.922z M81.733,104.485l22.768-22.738L91.045,68.291L68.307,91.059
					L81.733,104.485z M79.931,57.178L66.655,43.872L43.889,66.639l13.276,13.276L79.931,57.178z M32.778,55.526l22.768-22.768
					L41.757,18.972L18.99,41.739L32.778,55.526z"/>
			</g>
		</g>
		<path style="fill:#454D5B;" d="M175.042,100.43l21.314,21.296l6.488-6.488l-23.828-23.846
			C177.91,94.078,176.591,97.102,175.042,100.43z"/>
		<path style="fill:#454D5B;" d="M109.13,208.922l7.419-7.389l-12.759-12.747c-2.802,2.082-5.707,4.115-8.69,6.109L109.13,208.922z"
			/>
		<path style="fill:#C5CBCF;" d="M116.134,178.885l11.525,11.534l57.55-57.58l-17.682-17.682
			C156.964,134.221,140.49,157.842,116.134,178.885z"/>
	</g>
</g>
<g>
</g>
<g>
</g>
<g>
</g>
<g>
</g>
<g>
</g>
<g>
</g>
<g>
</g>
<g>
</g>
<g>
</g>
<g>
</g>
<g>
</g>
<g>
</g>
<g>
</g>
<g>
</g>
<g>
</g>
</svg>
