<?xml version="1.0" encoding="iso-8859-1"?>
<!-- Generator: Adobe Illustrator 19.0.0, SVG Export Plug-In . SVG Version: 6.00 Build 0)  -->
<svg version="1.1" id="Layer_1" xmlns="http://www.w3.org/2000/svg" xmlns:xlink="http://www.w3.org/1999/xlink" x="0px" y="0px"
	 viewBox="0 0 512 512" style="enable-background:new 0 0 512 512;" xml:space="preserve">
<polygon style="fill:#D7614D;" points="293.649,8.17 260.969,8.17 260.969,73.532 305.981,40.851 "/>
<polygon style="fill:#FF8048;" points="260.969,8.17 218.353,8.17 206.01,40.851 239.655,73.532 273.3,40.851 "/>
<polygon style="fill:#FFA46E;" points="316.875,40.851 284.194,40.851 284.194,106.213 329.217,73.532 "/>
<polygon style="fill:#FFC894;" points="284.194,40.851 195.117,40.851 182.785,73.532 239.661,106.213 296.536,73.532 "/>
<path style="fill:#D7614D;" d="M347.736,73.532h-30.578l-61.157,201.532c54.141,0,98.043-43.89,98.043-98.043
	C354.044,175.551,347.736,73.532,347.736,73.532z"/>
<path style="fill:#FFA46E;" d="M164.266,73.532c0,0-6.307,102.019-6.307,103.489c0,13.345,2.669,26.068,7.495,37.67v-0.632
	L305.981,73.532H164.266z"/>
<path style="fill:#FF8048;" d="M317.158,73.532c0,0,4.205,102.019,4.205,103.489c0,54.152-29.26,98.043-65.362,98.043
	c-40.807,0-75.787-24.925-90.548-60.372v-0.632c0-77.671,62.856-140.528,140.528-140.528H317.158z"/>
<path style="fill:#9CFCE3;" d="M318.277,294.725c27.95-27.949,69.396-35.85,109.767-25.034l-40.546,96.379l-94.257,38.421
	C282.425,364.119,290.328,322.673,318.277,294.725z"/>
<path style="fill:#0DCD9B;" d="M428.047,269.694l-51.999,82.802l-82.81,51.991c40.371,10.823,81.828,2.919,109.775-25.027
	C430.959,351.514,438.855,310.065,428.047,269.694z"/>
<path style="fill:#12F8BC;" d="M428.047,269.694c-0.825,28.74-16.346,62.563-44.292,90.51s-61.778,43.475-90.517,44.285
	L428.047,269.694z"/>
<path style="fill:#9CFCE3;" d="M193.723,294.725c-27.95-27.949-69.396-35.85-109.767-25.034l40.546,96.379l94.257,38.421
	C229.575,364.119,221.672,322.673,193.723,294.725z"/>
<path style="fill:#0DCD9B;" d="M83.953,269.694l51.999,82.802l82.81,51.991c-40.371,10.823-81.828,2.919-109.775-25.027
	C81.041,351.514,73.145,310.065,83.953,269.694z"/>
<path style="fill:#12F8BC;" d="M83.953,269.694c0.825,28.74,16.346,62.563,44.292,90.51s61.778,43.475,90.517,44.285L83.953,269.694
	z"/>
<path d="M435.936,267.578c-0.755-2.819-2.958-5.022-5.777-5.778c-12.223-3.275-24.564-4.935-36.681-4.935
	c-31.53,0-60.291,11.394-80.98,32.083c-27.976,27.976-38.397,69.944-28.305,113.037l-20.024,20.027V282.922
	c54.763-4.185,98.043-50.084,98.043-105.901c0-1.428-3.439-57.341-6.326-103.994c-0.266-4.308-3.838-7.666-8.154-7.666h-12.871
	l-10.34-27.395c-1.199-3.181-4.244-5.286-7.643-5.286h-5.245L301.292,5.286C300.093,2.105,297.048,0,293.649,0h-75.298
	c-3.399,0-6.444,2.105-7.644,5.286l-10.341,27.395h-5.244c-3.399,0-6.444,2.105-7.644,5.286l-10.34,27.395h-12.871
	c-4.316,0-7.888,3.357-8.154,7.666c-2.886,46.653-6.326,102.566-6.326,103.994c0,14.179,2.8,27.716,7.864,40.093
	c0.134,0.434,0.31,0.848,0.511,1.247c15.143,35.704,49.283,61.475,89.666,64.561V503.83c0,4.512,3.657,8.17,8.17,8.17
	c4.513,0,8.17-3.658,8.17-8.17v-58.709l31.574-31.578c10.705,2.507,21.469,3.776,32.062,3.776c31.53,0,60.29-11.394,80.98-32.083
	C437.761,356.262,447.911,312.278,435.936,267.578z M200.77,49.021h5.244c3.399,0,6.444-2.105,7.644-5.286L224,16.34h64l6.168,16.34
	h-53.222c-4.513,0-8.17,3.658-8.17,8.17s3.657,8.17,8.17,8.17h70.283l6.168,16.34H194.602L200.77,49.021z M182.737,81.702
	c0.076,0,55.518,0,55.518,0c-32.454,16.675-58.006,44.943-71.173,79.294c1.271-21.005,3.512-57.381,4.866-79.294H182.737z
	 M173.642,212.946c0.6-72.471,59.733-131.244,132.343-131.244h23.201c0.076,0,10.865,0,10.865,0
	c1.929,31.218,5.656,91.789,5.82,95.455c-0.073,49.493-40.362,89.736-89.872,89.736
	C219.212,266.894,187.533,244.667,173.642,212.946z M397.231,373.682c-17.604,17.603-42.26,27.297-69.425,27.297
	c-5.984,0-12.04-0.471-18.113-1.386l95.877-95.89c3.191-3.191,3.191-8.364-0.001-11.554c-3.19-3.191-8.363-3.191-11.554,0.001
	l-95.874,95.886c-5.09-33.829,4.169-65.79,25.913-87.533c17.602-17.602,42.257-27.296,69.424-27.296
	c9.171,0,18.509,1.084,27.826,3.227C429.894,313.793,421.047,349.866,397.231,373.682z"/>
<path d="M118.521,256.865c-12.117,0-24.458,1.66-36.681,4.935c-2.819,0.756-5.021,2.958-5.777,5.778
	c-11.974,44.7-1.825,88.684,27.15,117.658c20.689,20.688,49.448,32.082,80.98,32.083c12.119,0,24.459-1.66,36.68-4.935
	c0.381-0.108,0.707-0.217,1.026-0.35c0.301-0.125,0.59-0.272,0.875-0.434c0.063-0.036,0.124-0.073,0.186-0.11
	c0.223-0.134,0.441-0.281,0.654-0.438c0.061-0.046,0.124-0.088,0.184-0.135c0.254-0.199,0.501-0.411,0.735-0.645
	c0.237-0.239,0.446-0.481,0.643-0.732c0.054-0.069,0.104-0.141,0.155-0.21c0.147-0.199,0.284-0.404,0.412-0.613
	c0.046-0.075,0.09-0.15,0.134-0.227c0.145-0.258,0.277-0.522,0.392-0.791c0.012-0.027,0.026-0.053,0.038-0.082
	c0.126-0.305,0.23-0.617,0.317-0.931c0.008-0.027,0.02-0.051,0.027-0.078c11.975-44.699,1.826-88.683-27.15-117.659
	C178.812,268.259,150.052,256.865,118.521,256.865z M213.858,388.039l-95.874-95.889c-3.192-3.191-8.365-3.193-11.554-0.001
	c-3.192,3.191-3.192,8.363-0.001,11.554l95.874,95.89c-6.071,0.915-12.125,1.386-18.105,1.386
	c-27.172-0.001-51.827-9.695-69.429-27.297c-23.816-23.816-32.662-59.889-24.074-97.248c9.316-2.143,18.654-3.227,27.826-3.227
	c27.166,0,51.822,9.694,69.424,27.296C209.691,322.246,218.949,354.209,213.858,388.039z"/>
<g>
</g>
<g>
</g>
<g>
</g>
<g>
</g>
<g>
</g>
<g>
</g>
<g>
</g>
<g>
</g>
<g>
</g>
<g>
</g>
<g>
</g>
<g>
</g>
<g>
</g>
<g>
</g>
<g>
</g>
</svg>
